<svg xmlns="http://www.w3.org/2000/svg">
<defs>
	<g id="expand-button">
		<path fill-rule="evenodd" d="M7.745 20.805a.75.75 0 0 1-.05-1.06L14.736 12 7.695 4.255a.75.75 0 1 1 1.11-1.01l7.5 8.25a.75.75 0 0 1 0 1.01l-7.5 8.25a.75.75 0 0 1-1.06.05Z" clip-rule="evenodd"/>
	</g>

	<g id="open-button">
		<path fill-rule="evenodd" clip-rule="evenodd" d="M8 14C11.3137 14 14 11.3137 14 8C14 4.68629 11.3137 2 8 2C4.68629 2 2 4.68629 2 8C2 11.3137 4.68629 14 8 14ZM8 15C11.866 15 15 11.866 15 8C15 4.13401 11.866 1 8 1C4.13401 1 1 4.13401 1 8C1 11.866 4.13401 15 8 15ZM9.74995 11C9.74995 11.3038 9.50371 11.55 9.19995 11.55H8.19995H7.19995C6.89619 11.55 6.64995 11.3038 6.64995 11C6.64995 10.6962 6.89619 10.45 7.19995 10.45H7.64995L7.64995 7.55H7.49994C7.19618 7.55 6.94994 7.30376 6.94994 7C6.94994 6.69624 7.19618 6.45 7.49994 6.45H8.19995C8.34582 6.45 8.48571 6.50795 8.58886 6.61109C8.69201 6.71424 8.74995 6.85413 8.74995 7L8.74995 10.45H9.19995C9.50371 10.45 9.74995 10.6962 9.74995 11ZM8 5.40002C8.3866 5.40002 8.7 5.08662 8.7 4.70002C8.7 4.31343 8.3866 4.00002 8 4.00002C7.6134 4.00002 7.3 4.31343 7.3 4.70002C7.3 5.08662 7.6134 5.40002 8 5.40002Z" />
	</g>

	<g id="close-button">
		<path fill-rule="evenodd" d="M6.22 6.22a.75.75 0 0 1 1.06 0L12 10.94l4.72-4.72a.75.75 0 1 1 1.06 1.06L13.06 12l4.72 4.72a.75.75 0 1 1-1.06 1.06L12 13.06l-4.72 4.72a.75.75 0 0 1-1.06-1.06L10.94 12 6.22 7.28a.75.75 0 0 1 0-1.06Z" clip-rule="evenodd"/>
	</g>

	<g id="streaming">
		<path fill-rule="evenodd" clip-rule="evenodd" d="M7.5 6.00421C7.5 4.75768 8.93047 4.05335 9.91848 4.81335L17.7136 10.8095C18.4955 11.411 18.4955 12.5898 17.7136 13.1913L9.91848 19.1875C8.93047 19.9475 7.5 19.2431 7.5 17.9966L7.5 6.00421ZM9.00002 6.00275C9.00001 6.0032 9 6.00369 9 6.00421L9 17.9966C9 17.9971 9.00001 17.9976 9.00002 17.9981C9.00042 17.9983 9.00086 17.9985 9.00136 17.9988C9.00185 17.999 9.00232 17.9992 9.00274 17.9994C9.00311 17.9991 9.0035 17.9988 9.00392 17.9985L16.7991 12.0023C16.7994 12.0021 16.7997 12.0018 16.7999 12.0016C16.8 12.0013 16.8 12.0009 16.8 12.0004C16.8 11.9999 16.8 11.9995 16.7999 11.9992C16.7997 11.999 16.7994 11.9987 16.7991 11.9985L9.00392 6.00229C9.0035 6.00197 9.00311 6.00168 9.00274 6.00141C9.00232 6.00159 9.00185 6.00179 9.00136 6.00204C9.00086 6.00228 9.00042 6.00252 9.00002 6.00275Z" />
	</g>

	<g id="maintenance">
		<path d="M28.6563,7.4609a1,1,0,0,0-1.6094-.2763l-4.8291,4.83-2.2266-.0058-.0058-2.2256,4.831-4.8291A1,1,0,0,0,24.54,3.3447a8.7264,8.7264,0,0,0-3.7373-.8437,8.6866,8.6866,0,0,0-8.3476,11.0947L3.7012,22.3506a4.1039,4.1039,0,0,0,0,5.7978l.15.15A4.0725,4.0725,0,0,0,6.75,29.5a4.1282,4.1282,0,0,0,2.8994-1.2l8.7559-8.7539a8.6881,8.6881,0,0,0,10.251-12.085ZM6.8154,26.1855a1,1,0,1,1,1-1A.9994.9994,0,0,1,6.8154,26.1855Z"/>
	</g>

	<g id="protected">
		<path fill-rule="evenodd" d="M7.8 7.5h-.3a4.5 4.5 0 0 1 9 0H7.8ZM6 7.529V7.5a6 6 0 1 1 12 0v.029c.588.036 1.006.116 1.362.298a3 3 0 0 1 1.311 1.311C21 9.78 21 10.62 21 12.3v5.4c0 1.68 0 2.52-.327 3.162a3 3 0 0 1-1.311 1.311c-.642.327-1.482.327-3.162.327H7.8c-1.68 0-2.52 0-3.162-.327a3 3 0 0 1-1.311-1.311C3 20.22 3 19.38 3 17.7v-5.4c0-1.68 0-2.52.327-3.162a3 3 0 0 1 1.311-1.311c.356-.182.774-.262 1.362-.298Zm6.706 7.295a1.5 1.5 0 1 0-1.412 0l-.654 2.617a.45.45 0 0 0 .436.559h1.848a.45.45 0 0 0 .436-.56l-.654-2.616Z" clip-rule="evenodd"/>
	</g>

	<g id="unprotected">
		<path fill-rule="evenodd" d="M6 1.5a6 6 0 0 1 6 6h7.2c1.68 0 2.52 0 3.162.327a3 3 0 0 1 1.311 1.311C24 9.78 24 10.62 24 12.3v5.4c0 1.68 0 2.52-.327 3.162a3 3 0 0 1-1.311 1.311c-.642.327-1.482.327-3.162.327h-8.4c-1.68 0-2.52 0-3.162-.327a3 3 0 0 1-1.311-1.311C6 20.22 6 19.38 6 17.7v-5.4c0-1.68 0-2.52.327-3.162a3 3 0 0 1 1.311-1.311c.602-.307 1.38-.326 2.862-.327a4.5 4.5 0 0 0-9 0 .75.75 0 0 1-1.5 0 6 6 0 0 1 6-6Zm8.294 13.324a1.5 1.5 0 1 1 1.412 0l.654 2.617a.45.45 0 0 1-.436.559h-1.848a.45.45 0 0 1-.436-.56l.654-2.616Z" clip-rule="evenodd"/>
	</g>

	<g id="lightning">
		<path d="M2.67277 12.9704C2.61521 13.1815 2.71131 13.4043 2.90433 13.5073C3.09735 13.6103 3.33595 13.5661 3.47924 13.4008L9.57299 6.36952C9.69318 6.23083 9.72139 6.03476 9.64516 5.86782C9.56892 5.70087 9.40228 5.59377 9.21876 5.59377H6.08247L7.32724 1.02961C7.38481 0.818537 7.2887 0.595714 7.09568 0.492717C6.90266 0.389719 6.66407 0.433943 6.52078 0.599274L0.427027 7.63052C0.306832 7.76921 0.278627 7.96529 0.354858 8.13223C0.431089 8.29917 0.597732 8.40627 0.781257 8.40627H3.91755L2.67277 12.9704Z" />
	</g>

	<g id="connect">
		<path d="M56.826,32C56.826,18.311,45.689,7.174,32,7.174S7.174,18.311,7.174,32S18.311,56.826,32,56.826S56.826,45.689,56.826,32z   M34.437,31.962c0,1.301-1.054,2.356-2.356,2.356c-1.301,0-2.356-1.055-2.356-2.356V19.709c0-1.301,1.055-2.356,2.356-2.356  c1.301,0,2.356,1.054,2.356,2.356V31.962z M48.031,32.041c0,8.839-7.191,16.03-16.031,16.03s-16.031-7.191-16.031-16.03  c0-4.285,1.669-8.313,4.701-11.34c0.46-0.46,1.062-0.689,1.665-0.689s1.207,0.23,1.667,0.691c0.92,0.921,0.919,2.412-0.002,3.332  c-2.139,2.138-3.318,4.981-3.318,8.006c0,6.24,5.077,11.317,11.318,11.317s11.318-5.077,11.318-11.317  c0-3.023-1.176-5.865-3.314-8.003c-0.92-0.921-0.919-2.412,0.001-3.333c0.921-0.921,2.412-0.919,3.333,0.001  C46.364,23.734,48.031,27.76,48.031,32.041z"/>
	</g>

	<g id="delete">
		<path fill-rule="evenodd" d="M6.22 6.22a.75.75 0 0 1 1.06 0L12 10.94l4.72-4.72a.75.75 0 1 1 1.06 1.06L13.06 12l4.72 4.72a.75.75 0 1 1-1.06 1.06L12 13.06l-4.72 4.72a.75.75 0 0 1-1.06-1.06L10.94 12 6.22 7.28a.75.75 0 0 1 0-1.06Z" clip-rule="evenodd"/>
	</g>

	<g id="tor">
		<path fill-rule="evenodd" clip-rule="evenodd" d="M9 0.5C9.30668 0.5 9.58246 0.686713 9.69636 0.971457C10.37 2.65562 11.5843 3.78597 12.873 4.74687C13.1951 4.98702 13.5179 5.21389 13.8382 5.43757C13.8726 5.46159 13.907 5.48561 13.9415 5.50962C14.2243 5.70701 14.5067 5.90404 14.773 6.09935C15.3625 6.5317 15.938 7.00078 16.3502 7.54957C17.386 8.92848 18 10.6436 18 12.5C18 14.8136 16.8599 17.0574 15.2086 18.7086C13.5574 20.3599 11.3136 21.5 9 21.5C6.68642 21.5 4.44259 20.3599 2.79137 18.7086C1.14015 17.0574 0 14.8136 0 12.5C0 10.6436 0.614036 8.92848 1.64978 7.54957C2.06199 7.00078 2.63748 6.5317 3.22699 6.09935C3.4933 5.90404 3.77567 5.70701 4.05855 5.50962C4.09296 5.48561 4.12738 5.46159 4.16178 5.43757C4.48211 5.21389 4.80495 4.98702 5.12702 4.74687C6.41569 3.78597 7.62998 2.65562 8.30364 0.971457C8.41754 0.686713 8.69332 0.5 9 0.5ZM4.11409 7.30892C3.54397 7.72705 3.12107 8.08839 2.84913 8.45043C2.0018 9.5785 1.5 10.9796 1.5 12.5C1.5 14.3286 2.41378 16.2097 3.85203 17.648C4.49187 18.2878 5.21938 18.8239 5.99091 19.2218C5.72839 18.9304 5.48633 18.607 5.26811 18.2605C4.34149 16.789 3.75 14.772 3.75 12.5C3.75 10.7553 4.42637 9.43311 5.08005 8.15528C5.16396 7.99126 5.2475 7.82796 5.32918 7.66459C5.74669 6.82957 6.11435 6.24273 6.447 5.71179C6.48324 5.65395 6.51906 5.59677 6.55449 5.54001C6.37685 5.6822 6.19937 5.81836 6.02366 5.94938C5.68119 6.20475 5.34153 6.44327 5.02056 6.66741C4.98594 6.69158 4.95158 6.71556 4.91748 6.73935C4.63231 6.93836 4.36518 7.12478 4.11409 7.30892ZM8.25 5.63409C8.05075 5.99063 7.84649 6.31861 7.6387 6.65225C7.32248 7.15999 6.9981 7.68084 6.67082 8.33541C6.58425 8.50854 6.49944 8.67559 6.41705 8.83786C5.75523 10.1414 5.25 11.1365 5.25 12.5C5.25 14.5236 5.77886 16.2566 6.53742 17.4612C7.07102 18.3086 7.67549 18.8375 8.25 19.0845V5.63409ZM9.75 19.95C11.3335 19.7409 12.9059 18.89 14.148 17.648C15.5862 16.2097 16.5 14.3286 16.5 12.5C16.5 10.9796 15.9982 9.5785 15.1509 8.45043C14.8789 8.08839 14.456 7.72705 13.8859 7.30892C13.6348 7.12477 13.3677 6.93835 13.0825 6.73933C13.0484 6.71554 13.014 6.69157 12.9794 6.66741C12.6585 6.44327 12.3188 6.20475 11.9763 5.94938C11.2248 5.38899 10.4409 4.73446 9.75 3.91648V19.95Z" />
	</g>

	<g id="city">
		<path fill-rule="evenodd" d="M12 3C8.675 3 6 5.67 6 8.94c0 1.66.47 3.29 1.36 4.7l4.392 6.972a16.527 16.527 0 0 0 .248.386l.018-.026c.05-.076.117-.181.23-.36l4.393-6.972A8.815 8.815 0 0 0 18 8.94C18 5.67 15.325 3 12 3ZM6.09 14.44a10.315 10.315 0 0 1-1.59-5.5C4.5 4.83 7.858 1.5 12 1.5c4.142 0 7.5 3.33 7.5 7.44 0 1.945-.55 3.85-1.59 5.5l-4.393 6.972c-.215.341-.323.512-.423.618a1.508 1.508 0 0 1-2.188 0c-.1-.106-.208-.277-.423-.619L6.09 14.44Z" clip-rule="evenodd"/>
		<path fill-rule="evenodd" d="M12 10.5a1.5 1.5 0 1 0 0-3 1.5 1.5 0 0 0 0 3Zm0 1.5a3 3 0 1 0 0-6 3 3 0 0 0 0 6Z" clip-rule="evenodd"/>
	</g>

	<g id="server">
		<path d="M20 3H4a2 2 0 0 0-2 2v4a2 2 0 0 0 2 2h16a2 2 0 0 0 2-2V5a2 2 0 0 0-2-2zM4 9V5h16v4zm16 4H4a2 2 0 0 0-2 2v4a2 2 0 0 0 2 2h16a2 2 0 0 0 2-2v-4a2 2 0 0 0-2-2zM4 19v-4h16v4z"/>
		<path d="M17 6h2v2h-2zm-3 0h2v2h-2zm3 10h2v2h-2zm-3 0h2v2h-2z"/>
	</g>

	<g id="via">
		<path fill-rule="evenodd" clip-rule="evenodd" d="M11.4697 3.21967C11.1768 3.51256 11.1768 3.98744 11.4697 4.28033L19.1893 12L11.4697 19.7197C11.1768 20.0126 11.1768 20.4874 11.4697 20.7803C11.7626 21.0732 12.2374 21.0732 12.5303 20.7803L20.7803 12.5303C21.0732 12.2374 21.0732 11.7626 20.7803 11.4697L12.5303 3.21967C12.2374 2.92678 11.7626 2.92678 11.4697 3.21967ZM3.21967 3.21967C2.92678 3.51256 2.92678 3.98744 3.21967 4.28033L10.9393 12L3.21967 19.7197C2.92678 20.0126 2.92678 20.4874 3.21967 20.7803C3.51256 21.0732 3.98744 21.0732 4.28033 20.7803L12.5303 12.5303C12.8232 12.2374 12.8232 11.7626 12.5303 11.4697L4.28033 3.21967C3.98744 2.92678 3.51256 2.92678 3.21967 3.21967Z" />
	</g>
</defs>
</svg>
