<svg width="64" height="64" viewBox="0 0 64 64" fill="none" xmlns="http://www.w3.org/2000/svg">
	<rect opacity="0.5" x="30" y="12" width="4" height="16" fill="url(#paint0_linear_2058_10885)" />
	<path opacity="0.5" d="M44 14L47.4641 16L39.4641 29.8564L36 27.8564L44 14Z" fill="url(#paint1_linear_2058_10885)" />
	<path opacity="0.5" d="M58.3137 18L61.1421 20.8284L49.8284 32.1421L47 29.3137L58.3137 18Z"
		fill="url(#paint2_linear_2058_10885)" />
	<path opacity="0.5" d="M5.82843 18L3 20.8284L14.3137 32.1421L17.1421 29.3137L5.82843 18Z"
		fill="url(#paint3_linear_2058_10885)" />
	<rect opacity="0.5" width="4" height="16" transform="matrix(-0.866025 0.5 0.5 0.866025 19.4641 14)"
		fill="url(#paint4_linear_2058_10885)" />
	<path
		d="M13 36.5556C13 30.7259 17.7259 26 23.5556 26H40.4444C46.2741 26 51 30.7259 51 36.5556V53.4444C51 59.2741 46.2741 64 40.4444 64H23.5556C17.7259 64 13 59.2741 13 53.4444V36.5556Z"
		fill="white" />
	<path fill-rule="evenodd" clip-rule="evenodd"
		d="M29.7167 54.232C30.5993 55.8186 32.8657 55.9046 33.8677 54.3894L43.2108 40.2615C44.2016 38.7633 43.2536 36.7546 41.4594 36.5504L23.0953 34.4609C21.1374 34.2382 19.7434 36.3026 20.6957 38.0146L20.7704 38.1482L28.9645 43.763L28.865 52.6952L29.7167 54.232Z"
		fill="url(#paint5_linear_2058_10885)" />
	<path
		d="M30.243 52.7523L31.0721 51.5156L37.3705 42.0015C37.9212 41.1697 37.3956 40.0538 36.3993 39.9395L20.7683 38.1449L28.8656 52.7018C29.1611 53.2228 29.9083 53.2515 30.243 52.7523Z"
		fill="url(#paint6_radial_2058_10885)" />
	<path
		d="M31.44 1.3025C31.698 0.899165 32.3022 0.899166 32.5603 1.30251L34.5105 4.35015C34.6013 4.49206 34.7455 4.5939 34.9125 4.63396L38.4982 5.49433C38.9727 5.60819 39.1594 6.16649 38.8444 6.52963L36.464 9.27355C36.3531 9.40131 36.298 9.56609 36.3104 9.73276L36.5763 13.3121C36.6115 13.7859 36.1227 14.1309 35.6699 13.952L32.2486 12.6002C32.0893 12.5372 31.911 12.5372 31.7517 12.6002L28.3303 13.952C27.8775 14.1309 27.3887 13.7859 27.4239 13.3121L27.6898 9.73276C27.7022 9.56609 27.6471 9.40131 27.5363 9.27354L25.1559 6.52963C24.8408 6.16649 25.0275 5.60819 25.5021 5.49433L29.0878 4.63396C29.2547 4.5939 29.399 4.49206 29.4898 4.35015L31.44 1.3025Z"
		fill="url(#paint7_linear_2058_10885)" />
	<path
		d="M45.5199 8.25597C45.7411 7.91468 46.2589 7.91468 46.4801 8.25597L48.1517 10.8347C48.2296 10.9548 48.3532 11.041 48.4963 11.0749L51.5698 11.8029C51.9765 11.8992 52.1365 12.3716 51.8665 12.6789L49.8261 15.0007C49.7311 15.1088 49.6839 15.2482 49.6945 15.3893L49.9224 18.418C49.9526 18.8188 49.5337 19.1108 49.1456 18.9594L46.213 17.8155C46.0764 17.7623 45.9236 17.7623 45.787 17.8155L42.8544 18.9594C42.4663 19.1108 42.0474 18.8188 42.0776 18.418L42.3055 15.3893C42.3161 15.2482 42.2689 15.1088 42.1739 15.0007L40.1335 12.6789C39.8635 12.3716 40.0235 11.8992 40.4302 11.8029L43.5037 11.0749C43.6468 11.041 43.7704 10.9548 43.8483 10.8347L45.5199 8.25597Z"
		fill="url(#paint8_linear_2058_10885)" />
	<path
		d="M17.5199 8.25597C17.7411 7.91468 18.2589 7.91468 18.4801 8.25597L20.1517 10.8347C20.2296 10.9548 20.3532 11.041 20.4963 11.0749L23.5698 11.8029C23.9765 11.8992 24.1365 12.3716 23.8665 12.6789L21.8261 15.0007C21.7311 15.1088 21.6839 15.2482 21.6945 15.3893L21.9224 18.418C21.9526 18.8188 21.5337 19.1108 21.1456 18.9594L18.213 17.8155C18.0764 17.7623 17.9236 17.7623 17.787 17.8155L14.8544 18.9594C14.4663 19.1108 14.0474 18.8188 14.0776 18.418L14.3055 15.3893C14.3161 15.2482 14.2689 15.1088 14.1739 15.0007L12.1335 12.6789C11.8635 12.3716 12.0235 11.8992 12.4302 11.8029L15.5037 11.0749C15.6468 11.041 15.7704 10.9548 15.8483 10.8347L17.5199 8.25597Z"
		fill="url(#paint9_linear_2058_10885)" />
	<path
		d="M5.05987 15.2327C5.26265 14.9224 5.73735 14.9224 5.94014 15.2327L7.47241 17.577C7.54376 17.6862 7.6571 17.7645 7.78829 17.7954L10.6056 18.4572C10.9785 18.5448 11.1252 18.9742 10.8776 19.2536L9.0073 21.3643C8.92021 21.4625 8.87692 21.5893 8.88665 21.7175L9.09558 24.4709C9.12323 24.8353 8.73919 25.1007 8.38342 24.9631L5.69523 23.9232C5.57005 23.8748 5.42995 23.8748 5.30477 23.9232L2.61658 24.9631C2.26081 25.1007 1.87677 24.8353 1.90443 24.4709L2.11335 21.7175C2.12308 21.5893 2.07979 21.4625 1.9927 21.3643L0.122372 19.2536C-0.125156 18.9742 0.0215328 18.5448 0.39439 18.4572L3.21171 17.7954C3.3429 17.7645 3.45624 17.6862 3.52759 17.577L5.05987 15.2327Z"
		fill="url(#paint10_linear_2058_10885)" />
	<path
		d="M58.0599 15.2327C58.2627 14.9224 58.7373 14.9224 58.9401 15.2327L60.4724 17.577C60.5438 17.6862 60.6571 17.7645 60.7883 17.7954L63.6056 18.4572C63.9785 18.5448 64.1252 18.9742 63.8776 19.2536L62.0073 21.3643C61.9202 21.4625 61.8769 21.5893 61.8866 21.7175L62.0956 24.4709C62.1232 24.8353 61.7392 25.1007 61.3834 24.9631L58.6952 23.9232C58.5701 23.8748 58.4299 23.8748 58.3048 23.9232L55.6166 24.9631C55.2608 25.1007 54.8768 24.8353 54.9044 24.4709L55.1134 21.7175C55.1231 21.5893 55.0798 21.4625 54.9927 21.3643L53.1224 19.2536C52.8748 18.9742 53.0215 18.5448 53.3944 18.4572L56.2117 17.7954C56.3429 17.7645 56.4562 17.6862 56.5276 17.577L58.0599 15.2327Z"
		fill="url(#paint11_linear_2058_10885)" />
	<circle opacity="0.5" cx="57" cy="34" r="2" fill="#F4C13C" />
	<circle opacity="0.5" cx="58" cy="11" r="1" fill="#F4C13C" />
	<circle opacity="0.5" cx="47.5" cy="2.5" r="1.5" fill="#F4C13C" />
	<circle opacity="0.5" cx="21" cy="5" r="1" fill="#F4C13C" />
	<circle opacity="0.5" cx="5.5" cy="6.5" r="1.5" fill="#F4C13C" />
	<circle opacity="0.5" cx="7" cy="33" r="1" fill="#F4C13C" />
	<circle opacity="0.5" cx="26" cy="18" r="1" fill="#F4C13C" />
	<defs>
		<linearGradient id="paint0_linear_2058_10885" x1="34.5714" y1="13.7938" x2="41.4965" y2="20.991"
			gradientUnits="userSpaceOnUse">
			<stop stop-color="#F4C13C" />
			<stop offset="1" stop-color="#F4C13C" stop-opacity="0" />
		</linearGradient>
		<linearGradient id="paint1_linear_2058_10885" x1="46.9641" y1="16.5" x2="47.215" y2="25.6361"
			gradientUnits="userSpaceOnUse">
			<stop stop-color="#F4C13C" />
			<stop offset="1" stop-color="#F4C13C" stop-opacity="0" />
		</linearGradient>
		<linearGradient id="paint2_linear_2058_10885" x1="60.5298" y1="21.182" x2="58.4076" y2="30.0717"
			gradientUnits="userSpaceOnUse">
			<stop stop-color="#F4C13C" />
			<stop offset="1" stop-color="#F4C13C" stop-opacity="0" />
		</linearGradient>
		<linearGradient id="paint3_linear_2058_10885" x1="3.61237" y1="21.182" x2="5.73457" y2="30.0717"
			gradientUnits="userSpaceOnUse">
			<stop stop-color="#F4C13C" />
			<stop offset="1" stop-color="#F4C13C" stop-opacity="0" />
		</linearGradient>
		<linearGradient id="paint4_linear_2058_10885" x1="3.817" y1="0.683008" x2="8.60233" y2="8.46959"
			gradientUnits="userSpaceOnUse">
			<stop stop-color="#F4C13C" />
			<stop offset="1" stop-color="#F4C13C" stop-opacity="0" />
		</linearGradient>
		<linearGradient id="paint5_linear_2058_10885" x1="41.3885" y1="54.2309" x2="26.4461" y2="28.4626"
			gradientUnits="userSpaceOnUse">
			<stop offset="0.0660125" stop-color="#8EFFEE" />
			<stop offset="0.4499" stop-color="#C9C7FF" />
			<stop offset="1" stop-color="#7341FF" />
		</linearGradient>
		<radialGradient id="paint6_radial_2058_10885" cx="0" cy="0" r="1" gradientUnits="userSpaceOnUse"
			gradientTransform="translate(30.2645 31.4809) rotate(93.7553) scale(23.7096 30.5761)">
			<stop offset="0.403126" stop-color="#6D4AFF" />
			<stop offset="0.9944" stop-color="#00F0C3" />
		</radialGradient>
		<linearGradient id="paint7_linear_2058_10885" x1="41.0001" y1="2.45749" x2="43.396" y2="13.1839"
			gradientUnits="userSpaceOnUse">
			<stop stop-color="#F4C13C" />
			<stop offset="1" stop-color="#EB702C" />
		</linearGradient>
		<linearGradient id="paint8_linear_2058_10885" x1="53.7143" y1="9.23326" x2="55.718" y2="18.3204"
			gradientUnits="userSpaceOnUse">
			<stop stop-color="#F4C13C" />
			<stop offset="1" stop-color="#EB702C" />
		</linearGradient>
		<linearGradient id="paint9_linear_2058_10885" x1="25.7143" y1="9.23326" x2="27.718" y2="18.3204"
			gradientUnits="userSpaceOnUse">
			<stop stop-color="#F4C13C" />
			<stop offset="1" stop-color="#EB702C" />
		</linearGradient>
		<linearGradient id="paint10_linear_2058_10885" x1="12.5715" y1="16.1211" x2="14.3793" y2="24.3885"
			gradientUnits="userSpaceOnUse">
			<stop stop-color="#F4C13C" />
			<stop offset="1" stop-color="#EB702C" />
		</linearGradient>
		<linearGradient id="paint11_linear_2058_10885" x1="65.5715" y1="16.1211" x2="67.3793" y2="24.3885"
			gradientUnits="userSpaceOnUse">
			<stop stop-color="#F4C13C" />
			<stop offset="1" stop-color="#EB702C" />
		</linearGradient>
	</defs>
</svg>
