<svg width="195" height="34" viewBox="0 0 195 34" fill="none" xmlns="http://www.w3.org/2000/svg">
<path d="M50.8345 21.7256V27.0135H54.5468V21.9566C54.5468 21.4657 54.7406 20.9914 55.0912 20.6449C55.4377 20.2984 55.9121 20.1004 56.4029 20.1004H60.2101C61.9837 20.1004 63.6873 19.3951 64.9412 18.137C66.1951 16.8831 66.9005 15.1796 66.9005 13.4059C66.9005 11.6323 66.1951 9.92875 64.9412 8.67069C63.6873 7.41676 61.9837 6.71143 60.2059 6.71143H50.8345V13.3193H54.5468V10.2051H59.9585C60.7999 10.2051 61.6042 10.5392 62.1982 11.1332C62.7922 11.7271 63.1263 12.5315 63.1263 13.3729C63.1263 14.2144 62.7922 15.0187 62.1982 15.6127C61.6042 16.2066 60.7999 16.5408 59.9585 16.5408H56.0276C55.347 16.5408 54.6705 16.6727 54.0435 16.9367C53.4125 17.1966 52.8432 17.5802 52.3606 18.0628C51.878 18.5454 51.4986 19.1187 51.2346 19.7457C50.9665 20.3685 50.8345 21.045 50.8345 21.7256Z" fill="white"/>
<path d="M67.4739 27.0136V18.9579C67.4739 15.6705 69.3919 13.0554 73.2321 13.0554C73.8466 13.0471 74.4612 13.1131 75.0635 13.2575V16.5697C74.6262 16.5408 74.2509 16.5408 74.0735 16.5408C72.04 16.5408 71.1655 17.473 71.1655 19.3621V27.0136H67.4739V27.0136Z" fill="white"/>
<path d="M76.1687 20.183C76.1687 16.1408 79.221 13.0596 83.4695 13.0596C87.7139 13.0596 90.7704 16.1408 90.7704 20.183C90.7704 24.2253 87.7181 27.3354 83.4695 27.3354C79.221 27.3354 76.1687 24.2212 76.1687 20.183ZM87.1323 20.183C87.1323 17.8855 85.5897 16.2563 83.4695 16.2563C81.3453 16.2563 79.8067 17.8814 79.8067 20.183C79.8067 22.5094 81.3494 24.1098 83.4695 24.1098C85.5897 24.1098 87.1323 22.5053 87.1323 20.183Z" fill="white"/>
<path d="M102.572 20.183C102.572 16.1408 105.624 13.0596 109.872 13.0596C114.121 13.0596 117.169 16.1408 117.169 20.183C117.169 24.2253 114.117 27.3354 109.872 27.3354C105.628 27.3354 102.572 24.2212 102.572 20.183ZM113.535 20.183C113.535 17.8855 111.993 16.2563 109.872 16.2563C107.752 16.2563 106.21 17.8814 106.21 20.183C106.21 22.5094 107.752 24.1098 109.872 24.1098C111.993 24.1098 113.535 22.5053 113.535 20.183Z" fill="white"/>
<path d="M119.091 27.0134V19.2506C119.091 15.6455 121.389 13.0552 125.489 13.0552C129.56 13.0552 131.857 15.6414 131.857 19.2506V27.0134H128.194V19.5393C128.194 17.5347 127.291 16.2807 125.489 16.2807C123.686 16.2807 122.783 17.5306 122.783 19.5393V27.0134H119.091Z" fill="white"/>
<path d="M101.47 16.2848H97.4856V21.3748C97.4856 23.1484 98.1249 23.961 99.9563 23.961C100.13 23.961 100.567 23.961 101.12 23.9321V26.9267C100.365 27.1288 99.6965 27.2485 98.9664 27.2485C95.8852 27.2485 93.7898 25.3882 93.7898 21.8698V16.2848H91.3149V13.348H91.9295C92.1729 13.348 92.4162 13.2985 92.639 13.2077C92.8658 13.1129 93.068 12.9768 93.2412 12.8035C93.4144 12.6303 93.5506 12.4282 93.6454 12.2013C93.7403 11.9744 93.7857 11.7352 93.7857 11.4918V8.72412H97.4773V13.348H101.462V16.2848H101.47Z" fill="white"/>
<path d="M168.877 6.76904H159.506V27.067H163.218V22.0142C163.218 21.5233 163.412 21.049 163.762 20.7025C164.109 20.356 164.583 20.158 165.074 20.158H168.877C170.651 20.158 172.35 19.4527 173.6 18.2029C174.854 16.949 175.555 15.2496 175.555 13.48C175.559 12.6015 175.39 11.727 175.056 10.9144C174.722 10.1019 174.231 9.3594 173.608 8.73656C172.985 8.11372 172.251 7.61875 171.439 7.28051C170.63 6.94228 169.76 6.76904 168.877 6.76904ZM171.802 13.4264C171.802 13.843 171.719 14.2555 171.558 14.6391C171.397 15.0227 171.166 15.3733 170.869 15.6662C170.576 15.959 170.226 16.1941 169.842 16.3509C169.459 16.5118 169.046 16.5901 168.63 16.5901H163.201V10.2668H168.63C169.046 10.2668 169.459 10.3493 169.846 10.5102C170.23 10.6711 170.581 10.9062 170.873 11.199C171.166 11.496 171.401 11.8466 171.558 12.2302C171.715 12.618 171.797 13.0304 171.793 13.447L171.802 13.4264Z" fill="#8A6EFF"/>
<path d="M146.467 26.9924L138.989 6.71094H143.213L148.134 21.226C148.327 21.7457 148.468 22.2819 148.55 22.8305H148.591C148.653 22.2778 148.794 21.7375 149.008 21.226L153.945 6.71094H158.198L150.683 26.9924H146.467Z" fill="#8A6EFF"/>
<path d="M176.945 26.9927V6.70703H180.2L189.777 19.2876C190.124 19.7207 190.421 20.1868 190.672 20.6818H190.73C190.664 20.0713 190.635 19.4567 190.639 18.8421V6.70703H194.475V26.9885H191.221L181.614 14.408C181.276 13.9708 180.979 13.5047 180.723 13.0138H180.69C180.744 13.6243 180.765 14.2389 180.752 14.8535V26.9885H176.945V26.9927Z" fill="#8A6EFF"/>
<path fill-rule="evenodd" clip-rule="evenodd" d="M15.1286 31.137C16.4637 33.5558 19.8922 33.6868 21.408 31.3769L35.5416 9.83825C37.0404 7.55414 35.6064 4.4918 32.8922 4.18056L5.11219 0.995021C2.15043 0.655395 0.0416359 3.80277 1.48221 6.41278L15.1286 31.137Z" fill="url(#paint0_radial_206_3877)"/>
<path d="M17.1789 26.9957L15.9245 28.8812C15.4163 29.6451 14.279 29.5981 13.8357 28.7948L15.1286 31.1373C15.3591 31.5549 15.6521 31.9044 15.9868 32.1849L15.9869 32.1847C17.5908 33.5283 20.154 33.2879 21.408 31.3769L35.5416 9.83826C37.0404 7.55413 35.6064 4.49183 32.8922 4.18062L5.11219 0.995013C2.15043 0.655443 0.0416356 3.80284 1.48221 6.41281L1.59186 6.61145L25.2374 9.34734C26.7446 9.52174 27.5397 11.2229 26.7067 12.4911L17.1789 26.9957Z" fill="url(#paint1_linear_206_3877)"/>
<defs>
<radialGradient id="paint0_radial_206_3877" cx="0" cy="0" r="1" gradientUnits="userSpaceOnUse" gradientTransform="translate(20.8453 -13.308) rotate(93.6599) scale(50.7924 63.847)">
<stop offset="0.403126" stop-color="#6D4AFF"/>
<stop offset="0.9944" stop-color="#00F0C3"/>
</radialGradient>
<linearGradient id="paint1_linear_206_3877" x1="32.7849" y1="31.1353" x2="9.91692" y2="-7.99532" gradientUnits="userSpaceOnUse">
<stop offset="0.0660125" stop-color="#8EFFEE"/>
<stop offset="0.4499" stop-color="#C9C7FF"/>
<stop offset="1" stop-color="#7341FF"/>
</linearGradient>
</defs>
</svg>
