<svg width="33" height="20" viewBox="0 0 33 20" fill="none" xmlns="http://www.w3.org/2000/svg">
<rect x="1.12501" y="0.416667" width="31.4583" height="19.1667" rx="6.25" fill="#292733"/>
<rect x="1.12501" y="0.416667" width="31.4583" height="19.1667" rx="6.25" stroke="url(#paint0_radial_1267_2819)" stroke-width="0.833333"/>
<path fill-rule="evenodd" clip-rule="evenodd" d="M6.71605 6.56801C6.18372 5.61671 6.95588 4.46334 8.03824 4.59304L17.0356 5.67123C18.0111 5.78813 18.5295 6.88413 18.0009 7.71236L13.4536 14.838C12.9452 15.6347 11.7706 15.6007 11.3091 14.776L6.71605 6.56801ZM7.93909 5.42046C7.5332 5.37182 7.24364 5.80433 7.44327 6.16107L7.67109 6.56821L14.8502 7.53287C15.3109 7.59477 15.5494 8.11617 15.2949 8.50517L11.7699 13.8929L12.0363 14.369C12.1901 14.6439 12.5817 14.6553 12.7511 14.3897L17.2985 7.26407C17.4967 6.95348 17.3023 6.54248 16.9365 6.49864L7.93909 5.42046Z" fill="white"/>
<path d="M20.7083 10.3123C20.7083 10.0247 20.9415 9.7915 21.2292 9.7915H27.4792C27.7668 9.7915 28 10.0247 28 10.3123C28 10.6 27.7668 10.8332 27.4792 10.8332H21.2292C20.9415 10.8332 20.7083 10.6 20.7083 10.3123Z" fill="white"/>
<path d="M24.3542 6.6665C24.6418 6.6665 24.875 6.89969 24.875 7.18734L24.875 13.4373C24.875 13.725 24.6418 13.9582 24.3542 13.9582C24.0665 13.9582 23.8333 13.725 23.8333 13.4373L23.8333 7.18734C23.8333 6.89969 24.0665 6.6665 24.3542 6.6665Z" fill="white"/>
<defs>
<radialGradient id="paint0_radial_1267_2819" cx="0" cy="0" r="1" gradientUnits="userSpaceOnUse" gradientTransform="translate(7.69033 7.5) rotate(10.0817) scale(25.7066 30.9782)">
<stop stop-color="#6E4BFF"/>
<stop offset="0.355428" stop-color="#547AEC"/>
<stop offset="1" stop-color="#2FCCCF"/>
</radialGradient>
</defs>
</svg>
